HIERARCHY
ROOT joint_Root
{
	OFFSET 0.0 0.0 0.0
	CHANNELS 6 Xposition Yposition Zposition Zrotation Xrotation Yrotation 
	JOINT Hips
	{
		OFFSET 4.5925 91.4895 -427.239
		CHANNELS 6 Xposition Yposition Zposition Zrotation Xrotation Yrotation 
		JOINT Spine
		{
			OFFSET 15.7357 0.0 0.0
			CHANNELS 6 Xposition Yposition Zposition Zrotation Xrotation Yrotation 
			JOINT Chest
			{
				OFFSET 8.98455 -0.406207 0.0
				CHANNELS 6 Xposition Yposition Zposition Zrotation Xrotation Yrotation 
				JOINT Neck
				{
					OFFSET 16.3773 0.0 0.0
					CHANNELS 6 Xposition Yposition Zposition Zrotation Xrotation Yrotation 
					JOINT Head
					{
						OFFSET 6.45672 0.0 0.0
						CHANNELS 6 Xposition Yposition Zposition Zrotation Xrotation Yrotation 
						End Site
						{
							OFFSET 0.0 0.0 0.0
						}
					}
				}
				JOINT Shoulder_L
				{
					OFFSET 12.9942 -0.242716 4.98039
					CHANNELS 6 Xposition Yposition Zposition Zrotation Xrotation Yrotation 
					JOINT UpperArm_L
					{
						OFFSET 5.34809 0.0 0.0
						CHANNELS 6 Xposition Yposition Zposition Zrotation Xrotation Yrotation 
						JOINT LowerArm_L
						{
							OFFSET 24.3286 1.87007e-05 0.0
							CHANNELS 6 Xposition Yposition Zposition Zrotation Xrotation Yrotation 
							JOINT Hand_L
							{
								OFFSET 22.2916 0.0 0.0
								CHANNELS 6 Xposition Yposition Zposition Zrotation Xrotation Yrotation 
								End Site
								{
									OFFSET 0.0 0.0 0.0
								}
							}
						}
					}
				}
				JOINT Shoulder_R
				{
					OFFSET 12.9945 -0.242716 -4.98039
					CHANNELS 6 Xposition Yposition Zposition Zrotation Xrotation Yrotation 
					JOINT UpperArm_R
					{
						OFFSET -5.34813 0.0 0.0
						CHANNELS 6 Xposition Yposition Zposition Zrotation Xrotation Yrotation 
						JOINT LowerArm_R
						{
							OFFSET -24.3289 0.000322201 0.0
							CHANNELS 6 Xposition Yposition Zposition Zrotation Xrotation Yrotation 
							JOINT Hand_R
							{
								OFFSET -22.2915 -0.000108084 0.0
								CHANNELS 6 Xposition Yposition Zposition Zrotation Xrotation Yrotation 
								End Site
								{
									OFFSET 0.0 0.0 0.0
								}
							}
						}
					}
				}
			}
		}
		JOINT UpperLeg_L
		{
			OFFSET -2.19248 -6.46944 0.0
			CHANNELS 6 Xposition Yposition Zposition Zrotation Xrotation Yrotation 
			JOINT LowerLeg_L
			{
				OFFSET 39.0811 0.0 -1.23785e-05
				CHANNELS 6 Xposition Yposition Zposition Zrotation Xrotation Yrotation 
				JOINT Foot_L
				{
					OFFSET 40.9854 0.0 -1.26872e-05
					CHANNELS 6 Xposition Yposition Zposition Zrotation Xrotation Yrotation 
					JOINT Toes_L
					{
						OFFSET 11.7543 0.0 0.0
						CHANNELS 6 Xposition Yposition Zposition Zrotation Xrotation Yrotation 
						End Site
						{
							OFFSET 0.0 0.0 0.0
						}
					}
				}
			}
		}
		JOINT UpperLeg_R
		{
			OFFSET -2.19251 6.46944 0.0
			CHANNELS 6 Xposition Yposition Zposition Zrotation Xrotation Yrotation 
			JOINT LowerLeg_R
			{
				OFFSET -39.0811 -0.00228153 -0.0401928
				CHANNELS 6 Xposition Yposition Zposition Zrotation Xrotation Yrotation 
				JOINT Foot_R
				{
					OFFSET -40.9854 0.0 0.0
					CHANNELS 6 Xposition Yposition Zposition Zrotation Xrotation Yrotation 
					JOINT Toes_R
					{
						OFFSET -11.7543 0.0 0.0
						CHANNELS 6 Xposition Yposition Zposition Zrotation Xrotation Yrotation 
						End Site
						{
							OFFSET 0.0 0.0 0.0
						}
					}
				}
			}
		}
	}
}
MOTION
Frames:	4
Frame Time:	0.0333333
0.000000 0.000000 0.000000 0.000000 0.000000 -0.000000 0.205475 90.686800 6.291030 88.619300 -6.390260 6.077580 15.735700 0.000005 -0.000001 85.805300 84.072600 -85.264300 8.984550 -0.406207 -0.000000 4.061810 -0.883312 1.112190 16.377300 -0.000001 -0.000001 2.489660 -3.833180 0.385308 6.456720 -0.000001 -0.000000 -15.419100 -2.395410 -3.795460 12.994200 -0.242716 4.980390 -91.877800 7.156600 -75.255800 5.348090 -0.000007 -0.000001 -61.577200 35.690600 -16.153400 24.328600 0.000019 0.000005 7.133040 21.271000 -19.032100 22.291600 -0.000001 0.000005 10.488700 5.243550 1.602490 12.994500 -0.242716 -4.980390 88.420300 11.021700 -81.791500 -5.348130 -0.000001 -0.000004 -62.275400 34.630700 -9.707930 -24.328900 0.000322 -0.000009 0.798357 2.454130 -18.052100 -22.291500 -0.000108 -0.000004 12.455100 5.391090 -2.649990 -2.192480 -6.469440 -0.000000 -174.289000 -14.544600 2.882790 39.081100 -0.000007 -0.000012 -0.144840 0.280963 27.271800 40.985400 -0.000006 -0.000013 0.083366 4.384410 -73.569400 11.754300 -0.000000 0.000003 -0.000120 -0.001201 -16.623500 -2.192510 6.469440 -0.000001 174.269000 18.420700 -176.762000 -39.081100 -0.002282 -0.040193 -0.071646 0.151817 26.276600 -40.985400 0.000008 0.000006 4.016430 13.842000 -73.269900 -11.754300 -0.000006 -0.000006 -0.001514 -0.022464 -17.486500
0.000000 0.000000 0.000000 0.000000 0.000000 -0.000000 0.119204 90.694400 6.139130 88.636000 -6.489320 6.219730 15.735700 0.000005 -0.000001 85.576600 84.023700 -84.971500 8.984550 -0.406207 -0.000000 4.156630 -0.939492 1.242890 16.377300 -0.000001 -0.000001 2.753910 -3.945380 0.520300 6.456720 -0.000001 -0.000000 -15.311000 -2.479500 -3.737650 12.994200 -0.242716 4.980390 -91.833300 7.077840 -75.438300 5.348090 -0.000007 -0.000001 -61.500500 37.735700 -17.340500 24.328600 0.000019 0.000005 7.386740 20.648500 -20.185400 22.291600 -0.000001 0.000005 10.349900 5.255990 1.273840 12.994500 -0.242716 -4.980390 88.453900 10.992600 -81.943200 -5.348130 -0.000001 -0.000004 -62.388800 36.146200 -10.805200 -24.328900 0.000322 -0.000009 0.684565 1.935190 -19.517200 -22.291500 -0.000108 -0.000004 12.619000 5.399550 -2.922330 -2.192480 -6.469440 -0.000000 -174.217000 -14.584800 2.900560 39.081100 -0.000007 -0.000012 -0.147324 0.284893 27.344700 40.985400 -0.000006 -0.000013 0.022699 4.362050 -73.495800 11.754300 -0.000000 0.000003 -0.000133 -0.001313 -16.627600 -2.192510 6.469440 -0.000001 174.282000 18.350800 -176.772000 -39.081100 -0.002282 -0.040193 -0.085118 0.178490 26.354900 -40.985400 0.000008 0.000006 3.869900 13.923900 -73.164600 -11.754300 -0.000006 -0.000006 -0.001529 -0.022657 -17.494400
0.000000 0.000000 0.000000 0.000000 0.000000 -0.000000 0.039557 90.701300 5.998700 88.674800 -6.561590 6.384290 15.735700 0.000005 -0.000001 85.429500 83.948300 -84.768900 8.984550 -0.406207 -0.000000 4.305300 -0.982838 1.356670 16.377300 -0.000001 -0.000001 2.997940 -4.073030 0.652554 6.456720 -0.000001 -0.000000 -15.209200 -2.634060 -3.570510 12.994200 -0.242716 4.980390 -91.784400 6.954490 -75.571500 5.348090 -0.000007 -0.000001 -61.149200 39.513200 -18.873500 24.328600 0.000019 0.000005 8.182590 21.405000 -21.503400 22.291600 -0.000001 0.000005 9.973460 5.280030 0.625283 12.994500 -0.242716 -4.980390 88.495000 10.869100 -82.067700 -5.348130 -0.000001 -0.000004 -62.485500 37.603400 -12.016100 -24.328900 0.000322 -0.000009 0.563696 1.484790 -20.828400 -22.291500 -0.000108 -0.000004 12.621500 5.404360 -3.079450 -2.192480 -6.469440 -0.000000 -174.186000 -14.556500 2.948420 39.081100 -0.000007 -0.000012 -0.146412 0.282500 27.396600 40.985400 -0.000006 -0.000013 -0.040808 4.301830 -73.418900 11.754300 -0.000000 0.000003 -0.000132 -0.001305 -16.627300 -2.192510 6.469440 -0.000001 174.264000 18.262600 -176.750000 -39.081100 -0.002282 -0.040193 -0.099112 0.206113 26.423600 -40.985400 0.000008 0.000006 3.642260 13.988300 -73.040200 -11.754300 -0.000006 -0.000006 -0.001299 -0.019568 -17.368800
0.000000 0.000000 0.000000 0.000000 0.000000 -0.000000 -0.039200 90.713200 5.840870 88.721400 -6.486130 6.510210 15.735700 0.000005 -0.000001 85.165600 83.874600 -84.455800 8.984550 -0.406207 -0.000000 4.448750 -1.051240 1.459000 16.377300 -0.000001 -0.000001 3.239700 -4.288370 0.822367 6.456720 -0.000001 -0.000000 -15.056400 -2.863530 -3.396300 12.994200 -0.242716 4.980390 -91.735500 6.830050 -75.706500 5.348090 -0.000007 -0.000001 -60.384500 40.723800 -20.704500 24.328600 0.000019 0.000005 9.596220 23.204400 -23.223100 22.291600 -0.000001 0.000005 10.351100 5.308950 -0.176817 12.994500 -0.242716 -4.980390 88.539100 10.663200 -82.152600 -5.348130 -0.000001 -0.000004 -62.588300 38.992500 -13.170900 -24.328900 0.000322 -0.000009 0.547525 1.359660 -21.977500 -22.291500 -0.000108 -0.000004 12.781100 5.409880 -3.261520 -2.192480 -6.469440 -0.000000 -174.172000 -14.450500 2.922810 39.081100 -0.000007 -0.000012 -0.147701 0.284393 27.445600 40.985400 -0.000006 -0.000013 -0.091830 4.302660 -73.316000 11.754300 -0.000000 0.000003 -0.000132 -0.001302 -16.627200 -2.192510 6.469440 -0.000001 174.232000 18.365200 -176.753000 -39.081100 -0.002282 -0.040193 -0.110347 0.228080 26.487800 -40.985400 0.000008 0.000006 3.499350 14.073500 -72.931400 -11.754300 -0.000006 -0.000006 -0.001404 -0.020991 -17.426700
